<svg width="23" height="15" viewBox="0 0 23 15" fill="none" xmlns="http://www.w3.org/2000/svg">
<g clip-path="url(#clip0_145_3122)">
<path d="M21.0557 15.0008H1.55566C1.15784 15.0008 0.776309 14.8427 0.495004 14.5614C0.213699 14.2801 0.0556641 13.8986 0.0556641 13.5008L0.0556641 7.19077H1.13629L1.38004 6.60077H1.92566L2.16879 7.18827H4.29504V6.74139L4.48504 7.19139H5.58879L5.77879 6.73389V7.19014H11.0619V6.22514H11.1619C11.2332 6.22764 11.2538 6.23389 11.2538 6.35264V7.19139H13.9869V6.96702C14.2663 7.10889 14.5957 7.19202 14.945 7.19202L15.0044 7.19139H15.0013H16.1513L16.3975 6.60389H16.9432L17.1838 7.19139H19.4V6.63264L19.735 7.19139H21.5075V3.50139H19.7532V3.93701L19.5075 3.50139H17.7038V3.93701L17.4782 3.50139H15.0425C14.6735 3.48274 14.3059 3.55868 13.9744 3.72201L13.9875 3.71639V3.50139H12.3075V3.71639C12.1042 3.55611 11.8474 3.47944 11.5894 3.50202H11.5932H5.45379L5.04191 4.45514L4.61879 3.50202H2.68504V3.93764L2.47191 3.50202H0.821914L0.0575391 5.25202V1.50201C0.0575391 1.10419 0.215574 0.722659 0.496879 0.441354C0.778184 0.160049 1.15971 0.00201416 1.55754 0.00201416H21.0575C21.4554 0.00201416 21.8369 0.160049 22.1182 0.441354C22.3995 0.722659 22.5575 1.10419 22.5575 1.50201V8.05202H21.3869C21.3682 8.05077 21.3457 8.05077 21.3238 8.05077C21.0525 8.05077 20.8007 8.13202 20.5907 8.27139L20.5957 8.26827V8.05202H18.8644C18.5939 8.03707 18.3264 8.11393 18.105 8.27014L18.1088 8.26764V8.05139H15.0175V8.26764C14.7645 8.12493 14.4787 8.05041 14.1882 8.05139H14.1638H14.165H12.1257V8.26764C11.8592 8.09697 11.5431 8.02101 11.2282 8.05202L11.2338 8.05139H8.95192L8.42942 8.61639L7.94067 8.05139H4.53192V11.7439H7.87692L8.41504 11.1701L8.92192 11.7439H10.9838V10.8795H11.2713C11.5477 10.8903 11.8234 10.8442 12.0813 10.7439L12.0675 10.7489V11.7451H13.7675V10.7833H13.8494C13.9532 10.7833 13.9638 10.787 13.9638 10.892V11.7458H19.13L19.1932 11.747C19.4894 11.747 19.7657 11.6583 19.9957 11.5064L19.99 11.5095V11.7458H21.6288L21.7069 11.747C22.0138 11.747 22.3057 11.6839 22.5707 11.5695L22.5563 11.5751V13.5014C22.5563 13.8992 22.3983 14.2807 22.117 14.5621C21.8356 14.8434 21.4541 15.0014 21.0563 15.0014L21.0557 15.0008ZM13.2463 11.2264H12.61V8.57952H14.07C14.3337 8.55507 14.5992 8.59943 14.8407 8.70827L14.8307 8.70452C15.0263 8.81202 15.1569 9.01702 15.1569 9.25202L15.1557 9.29389V9.29202L15.1563 9.31577C15.1563 9.61952 14.9732 9.88077 14.7107 9.99452L14.7057 9.99639C14.8313 10.0414 14.9363 10.1183 15.0144 10.2176L15.0157 10.2189C15.1039 10.365 15.1409 10.5363 15.1207 10.7058L15.1213 10.702V11.2258H14.4863V10.8945C14.5164 10.7142 14.4802 10.529 14.3844 10.3733L14.3863 10.3764C14.3203 10.3263 14.2449 10.2901 14.1645 10.27C14.0842 10.25 14.0006 10.2464 13.9188 10.2595L13.9225 10.2589H13.2463V11.2258V11.2264ZM13.2463 9.12639V9.72077H14.015C14.1236 9.73079 14.2329 9.71136 14.3313 9.66452L14.3275 9.66639C14.3678 9.64042 14.4008 9.6048 14.4238 9.56277C14.4467 9.52074 14.4587 9.47364 14.4588 9.42577L14.4582 9.41139C14.4613 9.36362 14.4508 9.31658 14.4279 9.27454C14.405 9.2325 14.3706 9.19782 14.3288 9.17452L14.3275 9.17389C14.2327 9.13147 14.1285 9.11425 14.025 9.12389H14.0275L13.2463 9.12639ZM7.60567 11.2258H5.10129V8.57952H7.64504L8.42317 9.44702L9.22754 8.57952H11.2482C11.9657 8.57952 12.3144 8.86514 12.3144 9.45139C12.3144 10.0483 11.9538 10.3383 11.2144 10.3383H10.4238V11.2251H9.19442L8.41567 10.3508L7.60629 11.2258H7.60567ZM9.79379 8.86327L8.82254 9.90702L9.79379 10.9845V8.86327ZM5.73191 10.1476V10.6739H7.28692L8.00567 9.89764L7.31442 9.12639H5.73129V9.60764H7.12004V10.147L5.73191 10.1476ZM10.4238 9.12702V9.80077H11.2407C11.4907 9.80077 11.6344 9.67327 11.6344 9.45077C11.6344 9.23827 11.5007 9.12639 11.2475 9.12639L10.4238 9.12702ZM21.6975 11.227H20.4763V10.6583H21.6925C21.7835 10.6708 21.8758 10.647 21.9494 10.592L21.9488 10.5926C21.9723 10.5709 21.991 10.5445 22.0038 10.5151C22.0166 10.4857 22.0232 10.454 22.0232 10.422V10.412C22.0232 10.3804 22.0164 10.3491 22.0031 10.3204C21.9898 10.2917 21.9704 10.2662 21.9463 10.2458C21.8816 10.199 21.8018 10.1781 21.7225 10.187H21.7238L21.6069 10.1833C21.0357 10.1683 20.3888 10.1508 20.3888 9.36764C20.3888 8.98639 20.6275 8.57952 21.2957 8.57952H22.5563V9.14327H21.4032C21.3141 9.1333 21.2241 9.1512 21.1457 9.19452L21.1482 9.19327C21.1173 9.21357 21.0925 9.24182 21.0763 9.27503C21.0602 9.30825 21.0532 9.3452 21.0563 9.38202V9.38139V9.38827C21.0563 9.43038 21.0696 9.47142 21.0943 9.50554C21.119 9.53965 21.1538 9.56511 21.1938 9.57827L21.195 9.57889C21.2743 9.60332 21.3572 9.61348 21.44 9.60889H21.4382L21.7813 9.61764C22.0399 9.59183 22.2983 9.66884 22.5007 9.83202L22.4988 9.83077C22.5175 9.84577 22.5338 9.86202 22.5482 9.88014L22.5488 9.88077L22.5563 10.8883C22.4512 11.0111 22.3175 11.1062 22.167 11.1651C22.0164 11.2241 21.8537 11.2451 21.6932 11.2264L21.6975 11.227ZM19.2294 11.227H17.9969V10.6583H19.2232C19.3149 10.6703 19.4078 10.6466 19.4825 10.592L19.4813 10.5926C19.5046 10.5708 19.5232 10.5443 19.5359 10.515C19.5486 10.4856 19.5551 10.454 19.555 10.422V10.4158C19.555 10.3836 19.5481 10.3518 19.5349 10.3225C19.5216 10.2932 19.5023 10.267 19.4782 10.2458C19.4123 10.199 19.3316 10.1781 19.2513 10.187H19.2525L19.1363 10.1833C18.5669 10.1683 17.9207 10.1508 17.9207 9.36764C17.9207 8.98639 18.1582 8.57952 18.825 8.57952H20.0925V9.14327H18.9325C18.8441 9.1334 18.7547 9.15131 18.6769 9.19452L18.6794 9.19327C18.6466 9.21586 18.6205 9.2469 18.6038 9.28311C18.5872 9.31932 18.5806 9.35936 18.5848 9.39899C18.5891 9.43862 18.6039 9.47637 18.6278 9.50826C18.6517 9.54014 18.6838 9.56498 18.7207 9.58014L18.7219 9.58077C18.8022 9.60539 18.8862 9.61554 18.97 9.61077H18.9682L19.3088 9.61952C19.5688 9.59446 19.8284 9.67157 20.0325 9.83452L20.0307 9.83264C20.0993 9.90836 20.1516 9.99749 20.1841 10.0944C20.2166 10.1913 20.2286 10.294 20.2194 10.3958V10.3926C20.2213 10.9445 19.8869 11.2258 19.2275 11.2258L19.2294 11.227ZM17.6182 11.227H15.5057V8.57889H17.6163V9.12577H16.1369V9.60702H17.5819V10.1464H16.1369V10.6726L17.6182 10.6751V11.2251V11.227ZM18.8494 6.67327H17.5613L17.315 6.08327H16.0013L15.7625 6.67327H15.0225C14.6902 6.69079 14.363 6.58608 14.1025 6.37889L14.1057 6.38077C13.9819 6.24421 13.888 6.08337 13.8299 5.90851C13.7718 5.73364 13.7508 5.54859 13.7682 5.36514L13.7675 5.37014C13.7514 5.18332 13.7735 4.99517 13.8324 4.81714C13.8913 4.63911 13.9857 4.47491 14.11 4.33452L14.1088 4.33576C14.24 4.221 14.3935 4.13448 14.5596 4.08158C14.7257 4.02868 14.901 4.01053 15.0744 4.02826L15.0694 4.02764H15.6819V4.59202H15.0819C14.9941 4.58071 14.9049 4.5889 14.8206 4.61602C14.7364 4.64313 14.6591 4.6885 14.5944 4.74889L14.595 4.74827C14.4614 4.91939 14.3965 5.13428 14.4132 5.35077V5.34764C14.3932 5.57006 14.4558 5.79204 14.5888 5.97139L14.5869 5.96889C14.7112 6.07043 14.8702 6.11933 15.03 6.10514H15.0275H15.3113L16.2057 4.02389H17.1557L18.2263 6.52389V4.02389H19.1894L20.3007 5.86639V4.02389H20.9507V6.66889H20.0482L18.8482 4.68264V6.66889L18.8494 6.67327ZM16.6625 4.47451L16.2269 5.52952H17.1L16.6625 4.47451ZM10.5382 6.67202H9.90567V4.02576H11.3607C11.6263 3.9982 11.8944 4.04336 12.1363 4.15639L12.1269 4.15264C12.2242 4.20643 12.3053 4.28529 12.3618 4.38102C12.4183 4.47675 12.4481 4.58586 12.4482 4.69702L12.4469 4.74077V4.73889V4.75827C12.447 4.90261 12.4054 5.0439 12.3271 5.16519C12.2488 5.28647 12.1372 5.38259 12.0057 5.44202L12.0007 5.44389C12.1263 5.49139 12.2319 5.56764 12.3125 5.66514L12.3138 5.66639C12.403 5.813 12.4398 5.98553 12.4182 6.15577L12.4188 6.15202V6.67139H11.7807L11.7782 6.33764V6.28764C11.8009 6.12445 11.7648 5.95851 11.6763 5.81952L11.6782 5.82264C11.612 5.77401 11.5368 5.73897 11.457 5.71956C11.3772 5.70014 11.2943 5.69673 11.2132 5.70952L11.2169 5.70889H10.5388V6.67139L10.5382 6.67202ZM10.5382 4.57639V5.16389H11.3057C11.4141 5.17565 11.5236 5.15613 11.6213 5.10764L11.6182 5.10889C11.6582 5.08455 11.6913 5.05033 11.7143 5.0095C11.7373 4.96867 11.7494 4.92262 11.7494 4.87577L11.7488 4.85826C11.752 4.81078 11.7412 4.76402 11.7177 4.72259C11.6943 4.68116 11.6593 4.6475 11.6169 4.62577L11.6157 4.62514C11.5206 4.58433 11.417 4.56718 11.3138 4.57514H11.3157L10.5382 4.57639ZM3.84066 6.67202H2.55566L2.31254 6.08202H0.995039L0.750039 6.67202H0.0625391L1.19566 4.02576H2.13504L3.21066 6.53014V4.02576H4.24254L5.07004 5.82014L5.83067 4.02576H6.88379V6.67077H6.23379L6.23254 4.60077L5.31567 6.67139H4.76066L3.84129 4.59764V6.67139L3.84066 6.67202ZM1.65066 4.47451L1.22004 5.52952H2.08379L1.65066 4.47451ZM13.4557 6.67139H12.8107V4.02576H13.4563V6.67077L13.4557 6.67139ZM9.46442 6.67139H7.35567V4.02576H9.46817V4.57577H7.98817V5.05264H9.43254V5.59577H7.98692V6.12452H9.46692V6.67077L9.46442 6.67139Z" fill="#00A0E9"/>
</g>
<defs>
<clipPath id="clip0_145_3122">
<rect width="22.5" height="15" fill="white" transform="translate(0.0556641)"/>
</clipPath>
</defs>
</svg>
