<svg width="26" height="27" viewBox="0 0 26 27" fill="none" xmlns="http://www.w3.org/2000/svg">
<path d="M5.41658 7.33325H24.9166V20.3333H5.41658V7.33325ZM15.1666 10.5833C16.0285 10.5833 16.8552 10.9257 17.4647 11.5352C18.0742 12.1446 18.4166 12.9713 18.4166 13.8333C18.4166 14.6952 18.0742 15.5219 17.4647 16.1313C16.8552 16.7408 16.0285 17.0833 15.1666 17.0833C14.3046 17.0833 13.478 16.7408 12.8685 16.1313C12.259 15.5219 11.9166 14.6952 11.9166 13.8333C11.9166 12.9713 12.259 12.1446 12.8685 11.5352C13.478 10.9257 14.3046 10.5833 15.1666 10.5833ZM9.74992 9.49992C9.74992 10.0746 9.52164 10.6257 9.11532 11.032C8.70899 11.4383 8.15789 11.6666 7.58325 11.6666V15.9999C8.15789 15.9999 8.70899 16.2282 9.11532 16.6345C9.52164 17.0408 9.74992 17.5919 9.74992 18.1666H20.5833C20.5833 17.5919 20.8115 17.0408 21.2179 16.6345C21.6242 16.2282 22.1753 15.9999 22.7499 15.9999V11.6666C22.1753 11.6666 21.6242 11.4383 21.2179 11.032C20.8115 10.6257 20.5833 10.0746 20.5833 9.49992H9.74992ZM1.08325 11.6666H3.24992V22.4999H20.5833V24.6666H1.08325V11.6666Z" fill="#FFA95A"/>
</svg>
