<svg width="21" height="15" viewBox="0 0 21 15" fill="none" xmlns="http://www.w3.org/2000/svg">
<g clip-path="url(#clip0_145_3117)">
<path d="M4.26711 14.9255V13.9327C4.26711 13.552 4.0354 13.3039 3.63824 13.3039C3.4397 13.3039 3.22457 13.3701 3.07563 13.5852C2.95985 13.4032 2.7944 13.3039 2.54618 13.3039C2.38065 13.3039 2.21528 13.3535 2.08284 13.5355V13.337H1.73535V14.9255H2.08284V14.0485C2.08284 13.7672 2.23178 13.6348 2.46349 13.6348C2.69505 13.6348 2.81098 13.7837 2.81098 14.0485V14.9255H3.15847V14.0485C3.15847 13.7672 3.32384 13.6348 3.53897 13.6348C3.77068 13.6348 3.88646 13.7837 3.88646 14.0485V14.9255H4.26711ZM9.41317 13.337H8.85063V12.8571H8.50314V13.337H8.18874V13.6513H8.50307V14.3794C8.50307 14.7435 8.65201 14.9586 9.04917 14.9586C9.19812 14.9586 9.36349 14.909 9.47942 14.8428L9.38007 14.5449C9.2808 14.6111 9.16502 14.6277 9.08226 14.6277C8.91681 14.6277 8.85063 14.5284 8.85063 14.3629V13.6513H9.41317V13.337ZM12.3586 13.3038C12.16 13.3038 12.0277 13.4032 11.9449 13.5355V13.337H11.5974V14.9255H11.9449V14.032C11.9449 13.7672 12.0607 13.6183 12.2758 13.6183C12.342 13.6183 12.4248 13.6349 12.491 13.6514L12.5902 13.3205C12.524 13.3039 12.4248 13.3039 12.3586 13.3039V13.3038ZM7.90744 13.4693C7.74191 13.3535 7.51028 13.3039 7.26206 13.3039C6.86497 13.3039 6.60025 13.5024 6.60025 13.8168C6.60025 14.0816 6.79879 14.2305 7.14628 14.2802L7.31173 14.2968C7.49377 14.3298 7.59304 14.3794 7.59304 14.4622C7.59304 14.578 7.46068 14.6608 7.22897 14.6608C6.99734 14.6608 6.8153 14.578 6.69945 14.4953L6.53399 14.76C6.71603 14.8924 6.96425 14.9586 7.21239 14.9586C7.67573 14.9586 7.94053 14.7435 7.94053 14.4456C7.94053 14.1643 7.7254 14.0154 7.39442 13.9658L7.22897 13.9492C7.08003 13.9326 6.96425 13.8996 6.96425 13.8003C6.96425 13.6845 7.08002 13.6183 7.26206 13.6183C7.46068 13.6183 7.65922 13.701 7.75849 13.7507L7.90744 13.4693ZM17.1407 13.3039C16.9421 13.3039 16.8097 13.4032 16.727 13.5355V13.337H16.3795V14.9255H16.727V14.032C16.727 13.7672 16.8428 13.6183 17.0579 13.6183C17.1241 13.6183 17.2069 13.6349 17.2731 13.6514L17.3724 13.3205C17.3062 13.3039 17.2069 13.3039 17.1407 13.3039ZM12.7061 14.1312C12.7061 14.6111 13.037 14.9586 13.55 14.9586C13.7816 14.9586 13.9471 14.909 14.1125 14.7766L13.9471 14.4953C13.8147 14.5946 13.6824 14.6442 13.5334 14.6442C13.2521 14.6442 13.0536 14.4456 13.0536 14.1312C13.0536 13.8334 13.2521 13.6348 13.5334 13.6183C13.6824 13.6183 13.8147 13.6679 13.9471 13.7672L14.1125 13.4859C13.9471 13.3535 13.7816 13.3039 13.55 13.3039C13.037 13.3039 12.7061 13.6514 12.7061 14.1312ZM15.9162 14.1312V13.337H15.5687V13.5355C15.4529 13.3867 15.2874 13.3039 15.0723 13.3039C14.6256 13.3039 14.2781 13.6514 14.2781 14.1312C14.2781 14.6111 14.6256 14.9586 15.0723 14.9586C15.3039 14.9586 15.4695 14.8759 15.5687 14.7269V14.9255H15.9162V14.1312ZM14.6421 14.1312C14.6421 13.8499 14.8241 13.6183 15.1219 13.6183C15.4032 13.6183 15.6018 13.8334 15.6018 14.1312C15.6018 14.4125 15.4032 14.6442 15.1219 14.6442C14.8241 14.6276 14.6421 14.4125 14.6421 14.1312ZM10.4888 13.3039C10.0255 13.3039 9.69447 13.6348 9.69447 14.1312C9.69447 14.6277 10.0254 14.9586 10.5053 14.9586C10.7369 14.9586 10.9686 14.8924 11.1507 14.7435L10.9852 14.4953C10.8528 14.5946 10.6873 14.6608 10.5219 14.6608C10.3068 14.6608 10.0916 14.5615 10.042 14.2801H11.2169V14.1478C11.2334 13.6348 10.9356 13.3039 10.4888 13.3039ZM10.4888 13.6017C10.7038 13.6017 10.8529 13.7341 10.8859 13.9824H10.0585C10.0916 13.7672 10.2406 13.6017 10.4888 13.6017ZM19.1098 14.1312V12.7082H18.7623V13.5355C18.6465 13.3867 18.481 13.3039 18.2659 13.3039C17.8191 13.3039 17.4716 13.6514 17.4716 14.1312C17.4716 14.6111 17.8191 14.9586 18.2659 14.9586C18.4976 14.9586 18.663 14.8759 18.7623 14.7269V14.9255H19.1098V14.1312ZM17.8357 14.1312C17.8357 13.8499 18.0177 13.6183 18.3156 13.6183C18.5969 13.6183 18.7954 13.8334 18.7954 14.1312C18.7954 14.4125 18.5969 14.6442 18.3156 14.6442C18.0177 14.6276 17.8357 14.4125 17.8357 14.1312ZM6.2196 14.1312V13.337H5.87211V13.5355C5.75626 13.3867 5.5908 13.3039 5.37568 13.3039C4.92892 13.3039 4.58143 13.6514 4.58143 14.1312C4.58143 14.6111 4.92892 14.9586 5.37568 14.9586C5.60739 14.9586 5.77284 14.8759 5.87211 14.7269V14.9255H6.2196V14.1312ZM4.92892 14.1312C4.92892 13.8499 5.11095 13.6183 5.40877 13.6183C5.69008 13.6183 5.88869 13.8334 5.88869 14.1312C5.88869 14.4125 5.69008 14.6442 5.40877 14.6442C5.11095 14.6276 4.92892 14.4125 4.92892 14.1312Z" fill="#2F2F2F"/>
<path d="M7.7915 1.27411H13.0038V10.6398H7.7915V1.27411Z" fill="#FF5F00"/>
<path d="M8.12253 5.95696C8.12253 4.05407 9.01604 2.36623 10.3894 1.2741C9.38011 0.479849 8.10602 0 6.71607 0C3.42308 0 0.759033 2.66404 0.759033 5.95696C0.759033 9.2498 3.42308 11.9139 6.71599 11.9139C8.10594 11.9139 9.38004 11.4341 10.3894 10.6397C9.01604 9.5642 8.12253 7.85985 8.12253 5.95696Z" fill="#EB001B"/>
<path d="M20.0364 5.95696C20.0364 9.2498 17.3723 11.9139 14.0794 11.9139C12.6895 11.9139 11.4154 11.4341 10.406 10.6397C11.796 9.54769 12.673 7.85985 12.673 5.95696C12.673 4.05407 11.7794 2.36623 10.406 1.2741C11.4153 0.479849 12.6895 0 14.0794 0C17.3723 0 20.0364 2.68063 20.0364 5.95696Z" fill="#FFA95A"/>
</g>
<defs>
<clipPath id="clip0_145_3117">
<rect width="19.2965" height="15" fill="white" transform="translate(0.759033)"/>
</clipPath>
</defs>
</svg>
