<svg width="28" height="9" viewBox="0 0 28 9" fill="none" xmlns="http://www.w3.org/2000/svg">
<g clip-path="url(#clip0_145_3115)">
<path d="M14.3563 2.86567C14.3405 4.1144 15.4692 4.81119 16.3194 5.22552C17.1929 5.65058 17.4864 5.92318 17.4829 6.30335C17.4764 6.8851 16.7861 7.14187 16.1402 7.15184C15.0132 7.1693 14.3579 6.84758 13.837 6.60425L13.431 8.5039C13.9537 8.74474 14.9215 8.95477 15.925 8.96399C18.2807 8.96399 19.8219 7.80115 19.8303 5.99822C19.8395 3.71005 16.6653 3.5834 16.687 2.56065C16.6945 2.25053 16.9904 1.91959 17.6388 1.83544C17.9598 1.79294 18.8458 1.76041 19.8503 2.22299L20.2446 0.385034C19.7044 0.188334 19.0101 -1.52588e-05 18.1456 -1.52588e-05C15.9284 -1.52588e-05 14.3689 1.17866 14.3563 2.86567ZM24.033 0.158298C23.6029 0.158298 23.2404 0.409213 23.0786 0.794262L19.7136 8.82899H22.0676L22.536 7.5344H25.4125L25.6843 8.82899H27.759L25.9485 0.158298H24.033ZM24.3624 2.50058L25.0417 5.75652H23.1812L24.3624 2.50058ZM11.5022 0.158406L9.6467 8.82888H11.8899L13.7445 0.15819H11.5022M8.18382 0.15819L5.84903 6.05992L4.90457 1.04192C4.79375 0.481756 4.35611 0.158298 3.87011 0.158298H0.0534579L0 0.410081C0.783543 0.580105 1.67378 0.854335 2.21313 1.14776C2.54321 1.327 2.63733 1.48368 2.74576 1.90961L4.53459 8.82899H6.90506L10.5393 0.158298L8.18382 0.15819Z" fill="#1434CB"/>
</g>
<defs>
<clipPath id="clip0_145_3115">
<rect width="27.759" height="9" fill="white"/>
</clipPath>
</defs>
</svg>
